<mxfile host="app.diagrams.net" modified="2020-06-30T15:29:39.545Z" agent="5.0 (Windows NT 10.0; Win64; x64) AppleWebKit/537.36 (KHTML, like Gecko) Chrome/83.0.4103.116 Safari/537.36" etag="1LCCvb2TAvkcQ-HOpvhN" version="13.3.5" type="github">
  <diagram id="6a731a19-8d31-9384-78a2-239565b7b9f0" name="Page-1">
    <mxGraphModel dx="4068" dy="2392" grid="0" gridSize="10" guides="1" tooltips="1" connect="1" arrows="1" fold="1" page="0" pageScale="1" pageWidth="1169" pageHeight="827" background="#000000" math="0" shadow="0">
      <root>
        <mxCell id="0" />
        <mxCell id="1" parent="0" />
        <mxCell id="1749" value="Trees" style="rounded=1;whiteSpace=wrap;html=1;shadow=0;labelBackgroundColor=none;strokeColor=none;strokeWidth=3;fillColor=#2F5B7C;fontFamily=Helvetica;fontSize=23;fontColor=#FFFFFF;align=center;fontStyle=0;spacing=5;arcSize=7;perimeterSpacing=2;glass=0;" parent="1" vertex="1">
          <mxGeometry x="916" y="-167" width="98" height="54" as="geometry" />
        </mxCell>
        <mxCell id="1746" value="" style="edgeStyle=none;rounded=0;jumpStyle=none;html=1;shadow=0;labelBackgroundColor=none;startArrow=none;startFill=0;endArrow=classic;endFill=1;jettySize=auto;orthogonalLoop=1;strokeWidth=3;fontFamily=Helvetica;fontSize=16;fontColor=#23445D;spacing=5;fillColor=#e3c800;strokeColor=#45FFFF;" parent="1" source="1749" target="T0vurwcoZlo6JB8hRkQS-1782" edge="1">
          <mxGeometry relative="1" as="geometry">
            <mxPoint x="971.3076923076924" y="105.65999999999988" as="targetPoint" />
            <mxPoint x="895" y="-107.99969387755098" as="sourcePoint" />
          </mxGeometry>
        </mxCell>
        <mxCell id="T0vurwcoZlo6JB8hRkQS-1781" value="In-order" style="rounded=1;whiteSpace=wrap;html=1;shadow=0;labelBackgroundColor=none;strokeColor=none;strokeWidth=3;fillColor=#2F5B7C;fontFamily=Helvetica;fontSize=23;fontColor=#FFFFFF;align=center;fontStyle=0;spacing=5;arcSize=7;perimeterSpacing=2;" parent="1" vertex="1">
          <mxGeometry x="1133" y="-203" width="140.5" height="39" as="geometry" />
        </mxCell>
        <mxCell id="T0vurwcoZlo6JB8hRkQS-1782" value="Heap" style="rounded=1;whiteSpace=wrap;html=1;shadow=0;labelBackgroundColor=none;strokeColor=none;strokeWidth=3;fillColor=#2F5B7C;fontFamily=Helvetica;fontSize=23;fontColor=#FFFFFF;align=center;fontStyle=0;spacing=5;arcSize=7;perimeterSpacing=2;horizontal=1;verticalAlign=middle;" parent="1" vertex="1">
          <mxGeometry x="738" y="-6" width="84" height="34" as="geometry" />
        </mxCell>
        <mxCell id="T0vurwcoZlo6JB8hRkQS-1786" value="" style="edgeStyle=none;rounded=0;jumpStyle=none;html=1;shadow=0;labelBackgroundColor=none;startArrow=none;startFill=0;endArrow=classic;endFill=1;jettySize=auto;orthogonalLoop=1;strokeWidth=3;fontFamily=Helvetica;fontSize=16;fontColor=#23445D;spacing=5;fillColor=#e3c800;strokeColor=#45FFFF;" parent="1" source="T0vurwcoZlo6JB8hRkQS-1782" target="T0vurwcoZlo6JB8hRkQS-1794" edge="1">
          <mxGeometry relative="1" as="geometry">
            <mxPoint x="989" y="156" as="sourcePoint" />
            <mxPoint x="950.6301369863012" y="197.9999999999999" as="targetPoint" />
          </mxGeometry>
        </mxCell>
        <mxCell id="T0vurwcoZlo6JB8hRkQS-1787" value="" style="edgeStyle=none;rounded=0;jumpStyle=none;html=1;shadow=0;labelBackgroundColor=none;startArrow=none;startFill=0;endArrow=classic;endFill=1;jettySize=auto;orthogonalLoop=1;strokeWidth=3;fontFamily=Helvetica;fontSize=16;fontColor=#23445D;spacing=5;fillColor=#e3c800;strokeColor=#45FFFF;" parent="1" source="T0vurwcoZlo6JB8hRkQS-1782" target="T0vurwcoZlo6JB8hRkQS-1795" edge="1">
          <mxGeometry relative="1" as="geometry">
            <mxPoint x="999" y="166" as="sourcePoint" />
            <mxPoint x="1016.0273972602738" y="197.9999999999999" as="targetPoint" />
          </mxGeometry>
        </mxCell>
        <mxCell id="T0vurwcoZlo6JB8hRkQS-1788" value="" style="edgeStyle=none;rounded=0;jumpStyle=none;html=1;shadow=0;labelBackgroundColor=none;startArrow=none;startFill=0;endArrow=classic;endFill=1;jettySize=auto;orthogonalLoop=1;strokeWidth=3;fontFamily=Helvetica;fontSize=16;fontColor=#23445D;spacing=5;fillColor=#e3c800;strokeColor=#45FFFF;" parent="1" source="1749" target="T0vurwcoZlo6JB8hRkQS-1781" edge="1">
          <mxGeometry relative="1" as="geometry">
            <mxPoint x="1155" y="-68" as="sourcePoint" />
            <mxPoint x="1155" y="-34" as="targetPoint" />
          </mxGeometry>
        </mxCell>
        <mxCell id="T0vurwcoZlo6JB8hRkQS-1789" value="Pre-order" style="rounded=1;whiteSpace=wrap;html=1;shadow=0;labelBackgroundColor=none;strokeColor=none;strokeWidth=3;fillColor=#2F5B7C;fontFamily=Helvetica;fontSize=23;fontColor=#FFFFFF;align=center;fontStyle=0;spacing=5;arcSize=7;perimeterSpacing=2;" parent="1" vertex="1">
          <mxGeometry x="1135" y="-154" width="136" height="36" as="geometry" />
        </mxCell>
        <mxCell id="T0vurwcoZlo6JB8hRkQS-1791" value="post-order" style="rounded=1;whiteSpace=wrap;html=1;shadow=0;labelBackgroundColor=none;strokeColor=none;strokeWidth=3;fillColor=#2F5B7C;fontFamily=Helvetica;fontSize=23;fontColor=#FFFFFF;align=center;fontStyle=0;spacing=5;arcSize=7;perimeterSpacing=2;" parent="1" vertex="1">
          <mxGeometry x="1135" y="-108" width="136.5" height="38" as="geometry" />
        </mxCell>
        <mxCell id="T0vurwcoZlo6JB8hRkQS-1793" value="" style="edgeStyle=none;rounded=0;jumpStyle=none;html=1;shadow=0;labelBackgroundColor=none;startArrow=none;startFill=0;endArrow=classic;endFill=1;jettySize=auto;orthogonalLoop=1;strokeWidth=3;fontFamily=Helvetica;fontSize=16;fontColor=#23445D;spacing=5;fillColor=#e3c800;strokeColor=#45FFFF;" parent="1" source="1749" target="T0vurwcoZlo6JB8hRkQS-1789" edge="1">
          <mxGeometry relative="1" as="geometry">
            <mxPoint x="1026" y="-121.78260869565213" as="sourcePoint" />
            <mxPoint x="1047" y="-125.43478260869563" as="targetPoint" />
          </mxGeometry>
        </mxCell>
        <mxCell id="T0vurwcoZlo6JB8hRkQS-1794" value="Min" style="rounded=1;whiteSpace=wrap;html=1;shadow=0;labelBackgroundColor=none;strokeColor=none;strokeWidth=3;fillColor=#2F5B7C;fontFamily=Helvetica;fontSize=23;fontColor=#FFFFFF;align=center;fontStyle=0;spacing=5;arcSize=7;perimeterSpacing=2;horizontal=1;verticalAlign=middle;" parent="1" vertex="1">
          <mxGeometry x="688" y="50" width="79.5" height="43" as="geometry" />
        </mxCell>
        <mxCell id="T0vurwcoZlo6JB8hRkQS-1795" value="Max" style="rounded=1;whiteSpace=wrap;html=1;shadow=0;labelBackgroundColor=none;strokeColor=none;strokeWidth=3;fillColor=#2F5B7C;fontFamily=Helvetica;fontSize=23;fontColor=#FFFFFF;align=center;fontStyle=0;spacing=5;arcSize=7;perimeterSpacing=2;horizontal=1;verticalAlign=middle;" parent="1" vertex="1">
          <mxGeometry x="804" y="51" width="79" height="41" as="geometry" />
        </mxCell>
        <mxCell id="T0vurwcoZlo6JB8hRkQS-1797" value="" style="edgeStyle=none;rounded=0;jumpStyle=none;html=1;shadow=0;labelBackgroundColor=none;startArrow=none;startFill=0;endArrow=classic;endFill=1;jettySize=auto;orthogonalLoop=1;strokeWidth=3;fontFamily=Helvetica;fontSize=16;fontColor=#23445D;spacing=5;fillColor=#e3c800;strokeColor=#45FFFF;" parent="1" source="1749" target="T0vurwcoZlo6JB8hRkQS-1791" edge="1">
          <mxGeometry relative="1" as="geometry">
            <mxPoint x="1026" y="-115.56877323420065" as="sourcePoint" />
            <mxPoint x="1101" y="-111.66542750929364" as="targetPoint" />
          </mxGeometry>
        </mxCell>
        <mxCell id="T0vurwcoZlo6JB8hRkQS-1798" value="Graph" style="rounded=1;whiteSpace=wrap;html=1;shadow=0;labelBackgroundColor=none;strokeColor=none;strokeWidth=3;fillColor=#2F5B7C;fontFamily=Helvetica;fontSize=23;fontColor=#FFFFFF;align=center;fontStyle=0;spacing=5;arcSize=7;perimeterSpacing=2;" parent="1" vertex="1">
          <mxGeometry x="1716" y="-243" width="122" height="47" as="geometry" />
        </mxCell>
        <mxCell id="T0vurwcoZlo6JB8hRkQS-1799" value="Data structures" style="rounded=1;whiteSpace=wrap;html=1;shadow=0;labelBackgroundColor=none;strokeColor=none;strokeWidth=3;fillColor=#2F5B7C;fontFamily=Helvetica;fontSize=23;fontColor=#FFFFFF;align=center;fontStyle=0;spacing=5;arcSize=7;perimeterSpacing=2;" parent="1" vertex="1">
          <mxGeometry x="1196" y="-393" width="139" height="64" as="geometry" />
        </mxCell>
        <mxCell id="cFTijlWa25xeLsZB_8mZ-1750" value="" style="edgeStyle=none;rounded=0;jumpStyle=none;html=1;shadow=0;labelBackgroundColor=none;startArrow=none;startFill=0;endArrow=classic;endFill=1;jettySize=auto;orthogonalLoop=1;strokeWidth=3;fontFamily=Helvetica;fontSize=16;fontColor=#23445D;spacing=5;fillColor=#e3c800;strokeColor=#45FFFF;" edge="1" parent="1" source="T0vurwcoZlo6JB8hRkQS-1799" target="1749">
          <mxGeometry relative="1" as="geometry">
            <mxPoint x="233" y="190.688352570829" as="sourcePoint" />
            <mxPoint x="348" y="169.69150052465898" as="targetPoint" />
          </mxGeometry>
        </mxCell>
        <mxCell id="cFTijlWa25xeLsZB_8mZ-1751" value="" style="edgeStyle=none;rounded=0;jumpStyle=none;html=1;shadow=0;labelBackgroundColor=none;startArrow=none;startFill=0;endArrow=classic;endFill=1;jettySize=auto;orthogonalLoop=1;strokeWidth=3;fontFamily=Helvetica;fontSize=16;fontColor=#23445D;spacing=5;fillColor=#e3c800;strokeColor=#45FFFF;" edge="1" parent="1" source="T0vurwcoZlo6JB8hRkQS-1799" target="T0vurwcoZlo6JB8hRkQS-1798">
          <mxGeometry relative="1" as="geometry">
            <mxPoint x="243" y="200.688352570829" as="sourcePoint" />
            <mxPoint x="358" y="179.69150052465898" as="targetPoint" />
          </mxGeometry>
        </mxCell>
        <mxCell id="cFTijlWa25xeLsZB_8mZ-1752" value="Lists" style="rounded=1;whiteSpace=wrap;html=1;shadow=0;labelBackgroundColor=none;strokeColor=none;strokeWidth=3;fillColor=#2F5B7C;fontFamily=Helvetica;fontSize=23;fontColor=#FFFFFF;align=center;fontStyle=0;spacing=5;arcSize=7;perimeterSpacing=2;" vertex="1" parent="1">
          <mxGeometry x="2245" y="-243" width="122" height="47" as="geometry" />
        </mxCell>
        <mxCell id="cFTijlWa25xeLsZB_8mZ-1754" value="" style="edgeStyle=none;rounded=0;jumpStyle=none;html=1;shadow=0;labelBackgroundColor=none;startArrow=none;startFill=0;endArrow=classic;endFill=1;jettySize=auto;orthogonalLoop=1;strokeWidth=3;fontFamily=Helvetica;fontSize=16;fontColor=#23445D;spacing=5;fillColor=#e3c800;strokeColor=#45FFFF;" edge="1" parent="1" source="T0vurwcoZlo6JB8hRkQS-1799" target="cFTijlWa25xeLsZB_8mZ-1752">
          <mxGeometry relative="1" as="geometry">
            <mxPoint x="1440" y="-12" as="sourcePoint" />
            <mxPoint x="1783" y="-62" as="targetPoint" />
          </mxGeometry>
        </mxCell>
        <mxCell id="cFTijlWa25xeLsZB_8mZ-1756" value="" style="edgeStyle=none;rounded=0;jumpStyle=none;html=1;shadow=0;labelBackgroundColor=none;startArrow=none;startFill=0;endArrow=classic;endFill=1;jettySize=auto;orthogonalLoop=1;strokeWidth=3;fontFamily=Helvetica;fontSize=16;fontColor=#23445D;spacing=5;fillColor=#e3c800;strokeColor=#45FFFF;" edge="1" parent="1" source="cFTijlWa25xeLsZB_8mZ-1752" target="cFTijlWa25xeLsZB_8mZ-1782">
          <mxGeometry relative="1" as="geometry">
            <mxPoint x="1474.999999999999" y="-341.2204301075267" as="sourcePoint" />
            <mxPoint x="2205.7040000000006" y="-120.00000000000023" as="targetPoint" />
          </mxGeometry>
        </mxCell>
        <mxCell id="cFTijlWa25xeLsZB_8mZ-1758" value="Sorting Algorithm" style="rounded=1;whiteSpace=wrap;html=1;shadow=0;labelBackgroundColor=none;strokeColor=none;strokeWidth=3;fillColor=#2F5B7C;fontFamily=Helvetica;fontSize=23;fontColor=#FFFFFF;align=center;fontStyle=0;spacing=5;arcSize=7;perimeterSpacing=2;" vertex="1" parent="1">
          <mxGeometry x="-367" y="-316" width="139" height="64" as="geometry" />
        </mxCell>
        <mxCell id="cFTijlWa25xeLsZB_8mZ-1760" value="Traversal" style="rounded=1;whiteSpace=wrap;html=1;shadow=0;labelBackgroundColor=none;strokeColor=none;strokeWidth=3;fillColor=#2F5B7C;fontFamily=Helvetica;fontSize=23;fontColor=#FFFFFF;align=center;fontStyle=0;spacing=5;arcSize=7;perimeterSpacing=2;" vertex="1" parent="1">
          <mxGeometry x="1568" y="-85" width="139" height="64" as="geometry" />
        </mxCell>
        <mxCell id="cFTijlWa25xeLsZB_8mZ-1761" value="" style="edgeStyle=none;rounded=0;jumpStyle=none;html=1;shadow=0;labelBackgroundColor=none;startArrow=none;startFill=0;endArrow=classic;endFill=1;jettySize=auto;orthogonalLoop=1;strokeWidth=3;fontFamily=Helvetica;fontSize=16;fontColor=#23445D;spacing=5;fillColor=#e3c800;strokeColor=#45FFFF;" edge="1" parent="1" source="T0vurwcoZlo6JB8hRkQS-1798" target="cFTijlWa25xeLsZB_8mZ-1760">
          <mxGeometry relative="1" as="geometry">
            <mxPoint x="-159" y="-341.60649819494574" as="sourcePoint" />
            <mxPoint x="-293" y="-288.39350180505426" as="targetPoint" />
          </mxGeometry>
        </mxCell>
        <mxCell id="cFTijlWa25xeLsZB_8mZ-1762" value="Binary search" style="rounded=1;whiteSpace=wrap;html=1;shadow=0;labelBackgroundColor=none;strokeColor=none;strokeWidth=3;fillColor=#2F5B7C;fontFamily=Helvetica;fontSize=23;fontColor=#FFFFFF;align=center;fontStyle=0;spacing=5;arcSize=7;perimeterSpacing=2;horizontal=1;verticalAlign=middle;" vertex="1" parent="1">
          <mxGeometry x="930" y="-6" width="157" height="34" as="geometry" />
        </mxCell>
        <mxCell id="cFTijlWa25xeLsZB_8mZ-1763" value="" style="edgeStyle=none;rounded=0;jumpStyle=none;html=1;shadow=0;labelBackgroundColor=none;startArrow=none;startFill=0;endArrow=classic;endFill=1;jettySize=auto;orthogonalLoop=1;strokeWidth=3;fontFamily=Helvetica;fontSize=16;fontColor=#23445D;spacing=5;fillColor=#e3c800;strokeColor=#45FFFF;" edge="1" parent="1" source="1749" target="cFTijlWa25xeLsZB_8mZ-1762">
          <mxGeometry relative="1" as="geometry">
            <mxPoint x="813.278145695364" y="2" as="targetPoint" />
            <mxPoint x="939.4701986754962" y="-101" as="sourcePoint" />
          </mxGeometry>
        </mxCell>
        <mxCell id="cFTijlWa25xeLsZB_8mZ-1764" value="Others" style="rounded=1;whiteSpace=wrap;html=1;shadow=0;labelBackgroundColor=none;strokeColor=none;strokeWidth=3;fillColor=#2F5B7C;fontFamily=Helvetica;fontSize=23;fontColor=#FFFFFF;align=center;fontStyle=0;spacing=5;arcSize=7;perimeterSpacing=2;horizontal=1;verticalAlign=middle;" vertex="1" parent="1">
          <mxGeometry x="1131" y="-9" width="157" height="34" as="geometry" />
        </mxCell>
        <mxCell id="cFTijlWa25xeLsZB_8mZ-1765" value="" style="edgeStyle=none;rounded=0;jumpStyle=none;html=1;shadow=0;labelBackgroundColor=none;startArrow=none;startFill=0;endArrow=classic;endFill=1;jettySize=auto;orthogonalLoop=1;strokeWidth=3;fontFamily=Helvetica;fontSize=16;fontColor=#23445D;spacing=5;fillColor=#e3c800;strokeColor=#45FFFF;" edge="1" parent="1" source="1749" target="cFTijlWa25xeLsZB_8mZ-1764">
          <mxGeometry relative="1" as="geometry">
            <mxPoint x="1013.026490066225" y="2" as="targetPoint" />
            <mxPoint x="983.3543046357618" y="-101" as="sourcePoint" />
          </mxGeometry>
        </mxCell>
        <mxCell id="cFTijlWa25xeLsZB_8mZ-1766" value="Notations" style="rounded=1;whiteSpace=wrap;html=1;shadow=0;labelBackgroundColor=none;strokeColor=none;strokeWidth=3;fillColor=#2F5B7C;fontFamily=Helvetica;fontSize=23;fontColor=#FFFFFF;align=center;fontStyle=0;spacing=5;arcSize=7;perimeterSpacing=2;glass=0;" vertex="1" parent="1">
          <mxGeometry x="504" y="-329" width="122" height="54" as="geometry" />
        </mxCell>
        <mxCell id="cFTijlWa25xeLsZB_8mZ-1767" value="&lt;font style=&quot;font-size: 17px&quot;&gt;Ω(Omega) best-case&lt;/font&gt;" style="rounded=1;whiteSpace=wrap;html=1;shadow=0;labelBackgroundColor=none;strokeColor=none;strokeWidth=3;fillColor=#2F5B7C;fontFamily=Helvetica;fontSize=17;fontColor=#FFFFFF;align=center;fontStyle=0;spacing=5;arcSize=7;perimeterSpacing=2;glass=0;" vertex="1" parent="1">
          <mxGeometry x="356" y="-215.5" width="110" height="51.5" as="geometry" />
        </mxCell>
        <mxCell id="cFTijlWa25xeLsZB_8mZ-1770" value="&lt;font style=&quot;font-size: 17px&quot;&gt;Θ(Theta) Average-case&lt;/font&gt;" style="rounded=1;whiteSpace=wrap;html=1;shadow=0;labelBackgroundColor=none;strokeColor=none;strokeWidth=3;fillColor=#2F5B7C;fontFamily=Helvetica;fontSize=17;fontColor=#FFFFFF;align=center;fontStyle=0;spacing=5;arcSize=7;perimeterSpacing=2;glass=0;" vertex="1" parent="1">
          <mxGeometry x="504" y="-214.25" width="128" height="49" as="geometry" />
        </mxCell>
        <mxCell id="cFTijlWa25xeLsZB_8mZ-1771" value="&lt;font style=&quot;font-size: 17px&quot;&gt;O(big-Oh) worst-case&lt;/font&gt;" style="rounded=1;whiteSpace=wrap;html=1;shadow=0;labelBackgroundColor=none;strokeColor=none;strokeWidth=3;fillColor=#2F5B7C;fontFamily=Helvetica;fontSize=17;fontColor=#FFFFFF;align=center;fontStyle=0;spacing=5;arcSize=7;perimeterSpacing=2;glass=0;" vertex="1" parent="1">
          <mxGeometry x="679" y="-212" width="119" height="50.5" as="geometry" />
        </mxCell>
        <mxCell id="cFTijlWa25xeLsZB_8mZ-1772" value="" style="edgeStyle=none;rounded=0;jumpStyle=none;html=1;shadow=0;labelBackgroundColor=none;startArrow=none;startFill=0;endArrow=classic;endFill=1;jettySize=auto;orthogonalLoop=1;strokeWidth=3;fontFamily=Helvetica;fontSize=16;fontColor=#23445D;spacing=5;fillColor=#e3c800;strokeColor=#45FFFF;" edge="1" parent="1" source="cFTijlWa25xeLsZB_8mZ-1766" target="cFTijlWa25xeLsZB_8mZ-1767">
          <mxGeometry relative="1" as="geometry">
            <mxPoint x="813.2781456953649" y="1.9999999999997726" as="targetPoint" />
            <mxPoint x="939.4701986754967" y="-101" as="sourcePoint" />
          </mxGeometry>
        </mxCell>
        <mxCell id="cFTijlWa25xeLsZB_8mZ-1773" value="" style="edgeStyle=none;rounded=0;jumpStyle=none;html=1;shadow=0;labelBackgroundColor=none;startArrow=none;startFill=0;endArrow=classic;endFill=1;jettySize=auto;orthogonalLoop=1;strokeWidth=3;fontFamily=Helvetica;fontSize=16;fontColor=#23445D;spacing=5;fillColor=#e3c800;strokeColor=#45FFFF;" edge="1" parent="1" source="cFTijlWa25xeLsZB_8mZ-1766" target="cFTijlWa25xeLsZB_8mZ-1770">
          <mxGeometry relative="1" as="geometry">
            <mxPoint x="823.2781456953649" y="11.999999999999773" as="targetPoint" />
            <mxPoint x="949.4701986754967" y="-91" as="sourcePoint" />
          </mxGeometry>
        </mxCell>
        <mxCell id="cFTijlWa25xeLsZB_8mZ-1774" value="" style="edgeStyle=none;rounded=0;jumpStyle=none;html=1;shadow=0;labelBackgroundColor=none;startArrow=none;startFill=0;endArrow=classic;endFill=1;jettySize=auto;orthogonalLoop=1;strokeWidth=3;fontFamily=Helvetica;fontSize=16;fontColor=#23445D;spacing=5;fillColor=#e3c800;strokeColor=#45FFFF;" edge="1" parent="1" source="cFTijlWa25xeLsZB_8mZ-1766" target="cFTijlWa25xeLsZB_8mZ-1771">
          <mxGeometry relative="1" as="geometry">
            <mxPoint x="833.2781456953649" y="21.999999999999773" as="targetPoint" />
            <mxPoint x="959.4701986754967" y="-81" as="sourcePoint" />
          </mxGeometry>
        </mxCell>
        <mxCell id="cFTijlWa25xeLsZB_8mZ-1775" value="Bubble Sort" style="rounded=1;whiteSpace=wrap;html=1;shadow=0;labelBackgroundColor=none;strokeColor=none;strokeWidth=3;fillColor=#2F5B7C;fontFamily=Helvetica;fontSize=23;fontColor=#FFFFFF;align=center;fontStyle=0;spacing=5;arcSize=7;perimeterSpacing=2;" vertex="1" parent="1">
          <mxGeometry x="-554" y="-511" width="162" height="64" as="geometry" />
        </mxCell>
        <mxCell id="cFTijlWa25xeLsZB_8mZ-1776" value="Vector Lists&lt;span style=&quot;color: rgba(0 , 0 , 0 , 0) ; font-family: monospace ; font-size: 0px&quot;&gt;%3CmxGraphModel%3E%3Croot%3E%3CmxCell%20id%3D%220%22%2F%3E%3CmxCell%20id%3D%221%22%20parent%3D%220%22%2F%3E%3CmxCell%20id%3D%222%22%20value%3D%22Array%20Lists%22%20style%3D%22rounded%3D1%3BwhiteSpace%3Dwrap%3Bhtml%3D1%3Bshadow%3D0%3BlabelBackgroundColor%3Dnone%3BstrokeColor%3Dnone%3BstrokeWidth%3D3%3BfillColor%3D%232F5B7C%3BfontFamily%3DHelvetica%3BfontSize%3D23%3BfontColor%3D%23FFFFFF%3Balign%3Dcenter%3BfontStyle%3D0%3Bspacing%3D5%3BarcSize%3D7%3BperimeterSpacing%3D2%3B%22%20vertex%3D%221%22%20parent%3D%221%22%3E%3CmxGeometry%20x%3D%222005%22%20y%3D%22-123%22%20width%3D%22182%22%20height%3D%2247%22%20as%3D%22geometry%22%2F%3E%3C%2FmxCell%3E%3C%2Froot%3E%3C%2FmxGraphModel%3E&lt;/span&gt;" style="rounded=1;whiteSpace=wrap;html=1;shadow=0;labelBackgroundColor=none;strokeColor=none;strokeWidth=3;fillColor=#2F5B7C;fontFamily=Helvetica;fontSize=23;fontColor=#FFFFFF;align=center;fontStyle=0;spacing=5;arcSize=7;perimeterSpacing=2;" vertex="1" parent="1">
          <mxGeometry x="2454" y="-250" width="182" height="47" as="geometry" />
        </mxCell>
        <mxCell id="cFTijlWa25xeLsZB_8mZ-1777" value="Linked List" style="rounded=1;whiteSpace=wrap;html=1;shadow=0;labelBackgroundColor=none;strokeColor=none;strokeWidth=3;fillColor=#2F5B7C;fontFamily=Helvetica;fontSize=23;fontColor=#FFFFFF;align=center;fontStyle=0;spacing=5;arcSize=7;perimeterSpacing=2;" vertex="1" parent="1">
          <mxGeometry x="2450" y="-188" width="182" height="47" as="geometry" />
        </mxCell>
        <mxCell id="cFTijlWa25xeLsZB_8mZ-1778" value="" style="edgeStyle=none;rounded=0;jumpStyle=none;html=1;shadow=0;labelBackgroundColor=none;startArrow=none;startFill=0;endArrow=classic;endFill=1;jettySize=auto;orthogonalLoop=1;strokeWidth=3;fontFamily=Helvetica;fontSize=16;fontColor=#23445D;spacing=5;fillColor=#e3c800;strokeColor=#45FFFF;" edge="1" parent="1" source="cFTijlWa25xeLsZB_8mZ-1752" target="cFTijlWa25xeLsZB_8mZ-1776">
          <mxGeometry relative="1" as="geometry">
            <mxPoint x="2290.2960000000003" y="-184.00000000000045" as="sourcePoint" />
            <mxPoint x="2215.7040000000006" y="-110.00000000000023" as="targetPoint" />
          </mxGeometry>
        </mxCell>
        <mxCell id="cFTijlWa25xeLsZB_8mZ-1779" value="" style="edgeStyle=none;rounded=0;jumpStyle=none;html=1;shadow=0;labelBackgroundColor=none;startArrow=none;startFill=0;endArrow=classic;endFill=1;jettySize=auto;orthogonalLoop=1;strokeWidth=3;fontFamily=Helvetica;fontSize=16;fontColor=#23445D;spacing=5;fillColor=#e3c800;strokeColor=#45FFFF;" edge="1" parent="1" source="cFTijlWa25xeLsZB_8mZ-1752" target="cFTijlWa25xeLsZB_8mZ-1777">
          <mxGeometry relative="1" as="geometry">
            <mxPoint x="2335.992" y="-184.00000000000045" as="sourcePoint" />
            <mxPoint x="2394.008" y="-110.00000000000023" as="targetPoint" />
          </mxGeometry>
        </mxCell>
        <mxCell id="cFTijlWa25xeLsZB_8mZ-1780" value="Adjacency List" style="rounded=1;whiteSpace=wrap;html=1;shadow=0;labelBackgroundColor=none;strokeColor=none;strokeWidth=3;fillColor=#2F5B7C;fontFamily=Helvetica;fontSize=23;fontColor=#FFFFFF;align=center;fontStyle=0;spacing=5;arcSize=7;perimeterSpacing=2;" vertex="1" parent="1">
          <mxGeometry x="2009" y="-34" width="182" height="47" as="geometry" />
        </mxCell>
        <mxCell id="cFTijlWa25xeLsZB_8mZ-1781" value="" style="edgeStyle=none;rounded=0;jumpStyle=none;html=1;shadow=0;labelBackgroundColor=none;startArrow=none;startFill=0;endArrow=classic;endFill=1;jettySize=auto;orthogonalLoop=1;strokeWidth=3;fontFamily=Helvetica;fontSize=16;fontColor=#23445D;spacing=5;fillColor=#e3c800;strokeColor=#45FFFF;" edge="1" parent="1" source="cFTijlWa25xeLsZB_8mZ-1752" target="cFTijlWa25xeLsZB_8mZ-1780">
          <mxGeometry relative="1" as="geometry">
            <mxPoint x="2290.2960000000003" y="-184.00000000000045" as="sourcePoint" />
            <mxPoint x="2215.7040000000006" y="-110.00000000000023" as="targetPoint" />
          </mxGeometry>
        </mxCell>
        <mxCell id="cFTijlWa25xeLsZB_8mZ-1782" value="Array Lists" style="rounded=1;whiteSpace=wrap;html=1;shadow=0;labelBackgroundColor=none;strokeColor=none;strokeWidth=3;fillColor=#2F5B7C;fontFamily=Helvetica;fontSize=23;fontColor=#FFFFFF;align=center;fontStyle=0;spacing=5;arcSize=7;perimeterSpacing=2;" vertex="1" parent="1">
          <mxGeometry x="2458" y="-316" width="182" height="47" as="geometry" />
        </mxCell>
        <mxCell id="cFTijlWa25xeLsZB_8mZ-1783" value="" style="edgeStyle=none;rounded=0;jumpStyle=none;html=1;shadow=0;labelBackgroundColor=none;startArrow=none;startFill=0;endArrow=classic;endFill=1;jettySize=auto;orthogonalLoop=1;strokeWidth=3;fontFamily=Helvetica;fontSize=16;fontColor=#23445D;spacing=5;fillColor=#e3c800;strokeColor=#45FFFF;" edge="1" parent="1" source="T0vurwcoZlo6JB8hRkQS-1798" target="cFTijlWa25xeLsZB_8mZ-1780">
          <mxGeometry relative="1" as="geometry">
            <mxPoint x="1765.635135135136" y="-184.00000000000045" as="sourcePoint" />
            <mxPoint x="1675.9864864864867" y="-77" as="targetPoint" />
          </mxGeometry>
        </mxCell>
        <mxCell id="cFTijlWa25xeLsZB_8mZ-1784" value="Adjacency Matrix" style="rounded=1;whiteSpace=wrap;html=1;shadow=0;labelBackgroundColor=none;strokeColor=none;strokeWidth=3;fillColor=#2F5B7C;fontFamily=Helvetica;fontSize=23;fontColor=#FFFFFF;align=center;fontStyle=0;spacing=5;arcSize=7;perimeterSpacing=2;" vertex="1" parent="1">
          <mxGeometry x="1724" y="16" width="197" height="47" as="geometry" />
        </mxCell>
        <mxCell id="cFTijlWa25xeLsZB_8mZ-1785" value="" style="edgeStyle=none;rounded=0;jumpStyle=none;html=1;shadow=0;labelBackgroundColor=none;startArrow=none;startFill=0;endArrow=classic;endFill=1;jettySize=auto;orthogonalLoop=1;strokeWidth=3;fontFamily=Helvetica;fontSize=16;fontColor=#23445D;spacing=5;fillColor=#e3c800;strokeColor=#45FFFF;" edge="1" parent="1" source="T0vurwcoZlo6JB8hRkQS-1798" target="cFTijlWa25xeLsZB_8mZ-1784">
          <mxGeometry relative="1" as="geometry">
            <mxPoint x="1755.635135135136" y="-194.00000000000045" as="sourcePoint" />
            <mxPoint x="1665.9864864864867" y="-87" as="targetPoint" />
          </mxGeometry>
        </mxCell>
        <mxCell id="cFTijlWa25xeLsZB_8mZ-1786" value="Singly" style="rounded=1;whiteSpace=wrap;html=1;shadow=0;labelBackgroundColor=none;strokeColor=none;strokeWidth=3;fillColor=#2F5B7C;fontFamily=Helvetica;fontSize=23;fontColor=#FFFFFF;align=center;fontStyle=0;spacing=5;arcSize=7;perimeterSpacing=2;" vertex="1" parent="1">
          <mxGeometry x="2410" y="-101" width="97" height="47" as="geometry" />
        </mxCell>
        <mxCell id="cFTijlWa25xeLsZB_8mZ-1788" value="" style="edgeStyle=none;rounded=0;jumpStyle=none;html=1;shadow=0;labelBackgroundColor=none;startArrow=none;startFill=0;endArrow=classic;endFill=1;jettySize=auto;orthogonalLoop=1;strokeWidth=3;fontFamily=Helvetica;fontSize=16;fontColor=#23445D;spacing=5;fillColor=#e3c800;strokeColor=#45FFFF;" edge="1" parent="1" source="cFTijlWa25xeLsZB_8mZ-1777" target="cFTijlWa25xeLsZB_8mZ-1786">
          <mxGeometry relative="1" as="geometry">
            <mxPoint x="2379" y="-194.75531914893645" as="sourcePoint" />
            <mxPoint x="2458" y="-176.26595744680867" as="targetPoint" />
          </mxGeometry>
        </mxCell>
        <mxCell id="cFTijlWa25xeLsZB_8mZ-1789" value="Doubly" style="rounded=1;whiteSpace=wrap;html=1;shadow=0;labelBackgroundColor=none;strokeColor=none;strokeWidth=3;fillColor=#2F5B7C;fontFamily=Helvetica;fontSize=23;fontColor=#FFFFFF;align=center;fontStyle=0;spacing=5;arcSize=7;perimeterSpacing=2;" vertex="1" parent="1">
          <mxGeometry x="2582" y="-101" width="97" height="47" as="geometry" />
        </mxCell>
        <mxCell id="cFTijlWa25xeLsZB_8mZ-1790" value="" style="edgeStyle=none;rounded=0;jumpStyle=none;html=1;shadow=0;labelBackgroundColor=none;startArrow=none;startFill=0;endArrow=classic;endFill=1;jettySize=auto;orthogonalLoop=1;strokeWidth=3;fontFamily=Helvetica;fontSize=16;fontColor=#23445D;spacing=5;fillColor=#e3c800;strokeColor=#45FFFF;" edge="1" parent="1" target="cFTijlWa25xeLsZB_8mZ-1789" source="cFTijlWa25xeLsZB_8mZ-1777">
          <mxGeometry relative="1" as="geometry">
            <mxPoint x="2691.818965517242" y="-131.50000000000045" as="sourcePoint" />
            <mxPoint x="2633" y="-168.76595744680867" as="targetPoint" />
          </mxGeometry>
        </mxCell>
        <mxCell id="cFTijlWa25xeLsZB_8mZ-1791" value="Bucket Sort" style="rounded=1;whiteSpace=wrap;html=1;shadow=0;labelBackgroundColor=none;strokeColor=none;strokeWidth=3;fillColor=#2F5B7C;fontFamily=Helvetica;fontSize=23;fontColor=#FFFFFF;align=center;fontStyle=0;spacing=5;arcSize=7;perimeterSpacing=2;" vertex="1" parent="1">
          <mxGeometry x="-358" y="-507" width="161" height="64" as="geometry" />
        </mxCell>
        <mxCell id="cFTijlWa25xeLsZB_8mZ-1792" value="" style="edgeStyle=none;rounded=0;jumpStyle=none;html=1;shadow=0;labelBackgroundColor=none;startArrow=none;startFill=0;endArrow=classic;endFill=1;jettySize=auto;orthogonalLoop=1;strokeWidth=3;fontFamily=Helvetica;fontSize=16;fontColor=#23445D;spacing=5;fillColor=#e3c800;strokeColor=#45FFFF;" edge="1" parent="1" source="cFTijlWa25xeLsZB_8mZ-1758" target="cFTijlWa25xeLsZB_8mZ-1775">
          <mxGeometry relative="1" as="geometry">
            <mxPoint x="-286.1238532110092" y="-349" as="sourcePoint" />
            <mxPoint x="-251" y="-169" as="targetPoint" />
          </mxGeometry>
        </mxCell>
        <mxCell id="cFTijlWa25xeLsZB_8mZ-1793" value="" style="edgeStyle=none;rounded=0;jumpStyle=none;html=1;shadow=0;labelBackgroundColor=none;startArrow=none;startFill=0;endArrow=classic;endFill=1;jettySize=auto;orthogonalLoop=1;strokeWidth=3;fontFamily=Helvetica;fontSize=16;fontColor=#23445D;spacing=5;fillColor=#e3c800;strokeColor=#45FFFF;" edge="1" parent="1" source="cFTijlWa25xeLsZB_8mZ-1758" target="cFTijlWa25xeLsZB_8mZ-1791">
          <mxGeometry relative="1" as="geometry">
            <mxPoint x="-276.1238532110092" y="-339" as="sourcePoint" />
            <mxPoint x="-276.8761467889908" y="-298.0000000000002" as="targetPoint" />
          </mxGeometry>
        </mxCell>
        <mxCell id="cFTijlWa25xeLsZB_8mZ-1794" value="Insertion Sort" style="rounded=1;whiteSpace=wrap;html=1;shadow=0;labelBackgroundColor=none;strokeColor=none;strokeWidth=3;fillColor=#2F5B7C;fontFamily=Helvetica;fontSize=23;fontColor=#FFFFFF;align=center;fontStyle=0;spacing=5;arcSize=7;perimeterSpacing=2;" vertex="1" parent="1">
          <mxGeometry x="-94" y="-327" width="167" height="64" as="geometry" />
        </mxCell>
        <mxCell id="cFTijlWa25xeLsZB_8mZ-1796" value="" style="edgeStyle=none;rounded=0;jumpStyle=none;html=1;shadow=0;labelBackgroundColor=none;startArrow=none;startFill=0;endArrow=classic;endFill=1;jettySize=auto;orthogonalLoop=1;strokeWidth=3;fontFamily=Helvetica;fontSize=16;fontColor=#23445D;spacing=5;fillColor=#e3c800;strokeColor=#45FFFF;" edge="1" parent="1" target="cFTijlWa25xeLsZB_8mZ-1794" source="cFTijlWa25xeLsZB_8mZ-1758">
          <mxGeometry relative="1" as="geometry">
            <mxPoint x="-226" y="-62" as="sourcePoint" />
            <mxPoint x="-251" y="53" as="targetPoint" />
          </mxGeometry>
        </mxCell>
        <mxCell id="cFTijlWa25xeLsZB_8mZ-1797" value="" style="edgeStyle=none;rounded=0;jumpStyle=none;html=1;shadow=0;labelBackgroundColor=none;startArrow=none;startFill=0;endArrow=classic;endFill=1;jettySize=auto;orthogonalLoop=1;strokeWidth=3;fontFamily=Helvetica;fontSize=16;fontColor=#23445D;spacing=5;fillColor=#e3c800;strokeColor=#45FFFF;" edge="1" parent="1" target="cFTijlWa25xeLsZB_8mZ-1798" source="cFTijlWa25xeLsZB_8mZ-1758">
          <mxGeometry relative="1" as="geometry">
            <mxPoint x="-229.79059829059815" y="-28.000000000000227" as="sourcePoint" />
            <mxPoint x="-101.86792452830196" y="-106" as="targetPoint" />
          </mxGeometry>
        </mxCell>
        <mxCell id="cFTijlWa25xeLsZB_8mZ-1798" value="Counting Sort" style="rounded=1;whiteSpace=wrap;html=1;shadow=0;labelBackgroundColor=none;strokeColor=none;strokeWidth=3;fillColor=#2F5B7C;fontFamily=Helvetica;fontSize=23;fontColor=#FFFFFF;align=center;fontStyle=0;spacing=5;arcSize=7;perimeterSpacing=2;" vertex="1" parent="1">
          <mxGeometry x="-126" y="-493" width="166" height="64" as="geometry" />
        </mxCell>
        <mxCell id="cFTijlWa25xeLsZB_8mZ-1799" value="Selection Sort" style="rounded=1;whiteSpace=wrap;html=1;shadow=0;labelBackgroundColor=none;strokeColor=none;strokeWidth=3;fillColor=#2F5B7C;fontFamily=Helvetica;fontSize=23;fontColor=#FFFFFF;align=center;fontStyle=0;spacing=5;arcSize=7;perimeterSpacing=2;" vertex="1" parent="1">
          <mxGeometry x="-139" y="-205" width="167" height="64" as="geometry" />
        </mxCell>
        <mxCell id="cFTijlWa25xeLsZB_8mZ-1800" value="" style="edgeStyle=none;rounded=0;jumpStyle=none;html=1;shadow=0;labelBackgroundColor=none;startArrow=none;startFill=0;endArrow=classic;endFill=1;jettySize=auto;orthogonalLoop=1;strokeWidth=3;fontFamily=Helvetica;fontSize=16;fontColor=#23445D;spacing=5;fillColor=#e3c800;strokeColor=#45FFFF;" edge="1" parent="1" source="cFTijlWa25xeLsZB_8mZ-1758" target="cFTijlWa25xeLsZB_8mZ-1799">
          <mxGeometry relative="1" as="geometry">
            <mxPoint x="-216" y="-247.2777777777776" as="sourcePoint" />
            <mxPoint x="-76" y="-194.9545454545455" as="targetPoint" />
          </mxGeometry>
        </mxCell>
        <mxCell id="cFTijlWa25xeLsZB_8mZ-1801" value="Radix Sort" style="rounded=1;whiteSpace=wrap;html=1;shadow=0;labelBackgroundColor=none;strokeColor=none;strokeWidth=3;fillColor=#2F5B7C;fontFamily=Helvetica;fontSize=23;fontColor=#FFFFFF;align=center;fontStyle=0;spacing=5;arcSize=7;perimeterSpacing=2;" vertex="1" parent="1">
          <mxGeometry x="-273" y="-109.5" width="167" height="64" as="geometry" />
        </mxCell>
        <mxCell id="cFTijlWa25xeLsZB_8mZ-1802" value="" style="edgeStyle=none;rounded=0;jumpStyle=none;html=1;shadow=0;labelBackgroundColor=none;startArrow=none;startFill=0;endArrow=classic;endFill=1;jettySize=auto;orthogonalLoop=1;strokeWidth=3;fontFamily=Helvetica;fontSize=16;fontColor=#23445D;spacing=5;fillColor=#e3c800;strokeColor=#45FFFF;" edge="1" parent="1" source="cFTijlWa25xeLsZB_8mZ-1758" target="cFTijlWa25xeLsZB_8mZ-1801">
          <mxGeometry relative="1" as="geometry">
            <mxPoint x="-216" y="-241.2045454545455" as="sourcePoint" />
            <mxPoint x="-119.62612612612611" y="-197" as="targetPoint" />
          </mxGeometry>
        </mxCell>
        <mxCell id="cFTijlWa25xeLsZB_8mZ-1803" value="Heap Sort" style="rounded=1;whiteSpace=wrap;html=1;shadow=0;labelBackgroundColor=none;strokeColor=none;strokeWidth=3;fillColor=#2F5B7C;fontFamily=Helvetica;fontSize=23;fontColor=#FFFFFF;align=center;fontStyle=0;spacing=5;arcSize=7;perimeterSpacing=2;" vertex="1" parent="1">
          <mxGeometry x="-493" y="-105" width="167" height="64" as="geometry" />
        </mxCell>
        <mxCell id="cFTijlWa25xeLsZB_8mZ-1804" value="" style="edgeStyle=none;rounded=0;jumpStyle=none;html=1;shadow=0;labelBackgroundColor=none;startArrow=none;startFill=0;endArrow=classic;endFill=1;jettySize=auto;orthogonalLoop=1;strokeWidth=3;fontFamily=Helvetica;fontSize=16;fontColor=#23445D;spacing=5;fillColor=#e3c800;strokeColor=#45FFFF;" edge="1" parent="1" source="cFTijlWa25xeLsZB_8mZ-1758" target="cFTijlWa25xeLsZB_8mZ-1803">
          <mxGeometry relative="1" as="geometry">
            <mxPoint x="-269.71791767554487" y="-240" as="sourcePoint" />
            <mxPoint x="-197.28208232445513" y="-101.5" as="targetPoint" />
          </mxGeometry>
        </mxCell>
      </root>
    </mxGraphModel>
  </diagram>
</mxfile>
